<?xml version="1.0" encoding="UTF-8"?>
<svg id="Layer_2" data-name="Layer 2" xmlns="http://www.w3.org/2000/svg" viewBox="0 0 601.38 181.07">
  <defs>
    <style>
      .cls-1 {
        fill: #027476;
      }

      .cls-2 {
        fill: #bea654;
      }
    </style>
  </defs>
  <g id="Layer_1-2" data-name="Layer 1">
    <g>
      <polygon class="cls-2" points="139.29 130.03 126.28 108.52 44.04 108.52 76.11 55.88 94.54 55.88 80.89 33.31 59.62 33.31 .9 130.03 139.29 130.03"/>
      <polygon class="cls-2" points="176.46 130.03 99.62 3.57 77.74 3.57 63.71 26.84 84.12 26.84 112.58 73.28 85.05 73.28 73.82 91.85 123.8 91.85 146.9 130.03 147.11 130.03 147.11 130.03 176.46 130.03"/>
    </g>
    <g>
      <path class="cls-1" d="M26.45,175.04l-10.64-22.59h-2.2l-8.87,20.12c-1.97,4.56-2.75,5.56-3.64,6.48l-1.11,1.15h7.92l-.45-.97c-.23-.49-.35-.99-.35-1.45,0-.4.31-1.1.82-2.26l1.84-4h8.76l1.55,3.4c.21.49.85,1.98.85,2.68,0,.59-.13,1.08-.43,1.58l-.62,1.03h10.36l-1.03-1.14c-1.14-1.26-2-2.37-2.76-4.02M16.65,167.25h-4.97l2.55-5.67,2.42,5.67Z"/>
      <path class="cls-1" d="M104.46,164.35c1.28-.94,2.72-2.63,2.72-5.14,0-6.76-7.4-6.76-10.19-6.76h-9.51l.44.96c.69,1.52,1,2.32,1,5.34v14.8c0,3.17-.09,3.81-1.35,5.57l-.77,1.08h10.19c3.98,0,12.27,0,12.27-8.69,0-3.44-1.69-5.94-4.8-7.17M96.84,163.36h-2.11v-6.68h1.72c2.83.05,4.47.57,4.47,3.09,0,2.96-2.22,3.58-4.08,3.58M101.24,175.12c-1.28.66-3.01.74-4.19.74h-2.33v-8.38h2.6c3.57,0,5.77.71,5.77,4.23,0,1.65-.61,2.76-1.86,3.41"/>
      <path class="cls-1" d="M120.98,153.42l.45-.97h-9.1l.75,1.07c.9,1.28.97,2.99.97,4.93v15.71c0,2.81-.11,3.05-.97,4.94l-.5,1.1h8.82s-.42-.96-.42-.96c-.92-2.09-1.03-2.36-1.03-5.08v-15.71c0-2.52.1-3.04,1.03-5.04"/>
      <path class="cls-1" d="M149.6,175.04l-10.64-22.59h-2.2l-8.87,20.12c-1.97,4.56-2.75,5.56-3.64,6.48l-1.11,1.15h7.92l-.45-.97c-.23-.49-.35-.99-.35-1.45,0-.41.31-1.11.83-2.28l1.83-3.99h8.76l1.55,3.4c.23.54.85,1.99.85,2.68,0,.59-.13,1.08-.43,1.58l-.62,1.03h10.36l-1.03-1.14c-1.14-1.26-2-2.37-2.76-4.02M139.8,167.25h-4.98l2.55-5.67,2.42,5.67Z"/>
      <path class="cls-1" d="M175.33,153.42c.81,1.69.84,2.08.84,4.61v10.54l-10.11-12.1-.24-.3c-.87-1.08-1.86-2.3-2.31-3.32l-.18-.41h-8.75l.77,1.08c.95,1.32,1.38,1.93,1.38,5.34v14.88c0,3.09-.27,4.11-1.04,5.44l-.59,1.02h7.69l-.46-.97c-.89-1.9-1.1-2.46-1.1-5.37v-13.94l16.93,20.28h2.55v-22.12c0-2.62.06-3.2.8-4.64l.51-.99h-7.14l.47.97Z"/>
      <path class="cls-1" d="M214.16,176.72c-7.18,0-9.74-5.42-9.74-10.49s2.42-10.15,9.21-10.15c4.56,0,7.09,2.87,7.11,2.9l1.2,1.39v-7.49l-.45-.16c-2.11-.75-4.61-1.13-7.4-1.13-9.36,0-16.16,6.19-16.16,14.73,0,8.97,6.4,14.76,16.31,14.76,1.83,0,3.97-.28,6.53-.85l.41-.09,1.74-7.06-1.48,1.02c-1.93,1.33-4.09,2.64-7.28,2.64"/>
      <path class="cls-1" d="M241.32,151.58c-9.6,0-15.33,7.43-15.33,14.61,0,8.34,6.73,14.88,15.33,14.88,7.48,0,15.22-5.56,15.22-14.88,0-8.19-6.68-14.61-15.22-14.61M241.32,176.57c-6.46,0-8.76-5.36-8.76-10.38,0-6.29,3.27-10.04,8.76-10.04s8.64,3.75,8.64,10.04-3.23,10.38-8.64,10.38"/>
      <path class="cls-1" d="M280.27,153.42c.81,1.69.84,2.08.84,4.61v10.54l-10.11-12.1-.24-.3c-.87-1.08-1.86-2.3-2.31-3.32l-.18-.41h-8.75l.77,1.08c.95,1.32,1.38,1.93,1.38,5.34v14.88c0,3.09-.27,4.11-1.04,5.44l-.59,1.02h7.69l-.46-.97c-.89-1.9-1.1-2.46-1.1-5.37v-13.94l16.93,20.28h2.55v-22.12c0-2.62.06-3.2.8-4.64l.51-.99h-7.14l.47.97Z"/>
      <path class="cls-1" d="M304.53,163.99l-3.12-1.24c-2.63-1.02-3.79-1.56-3.79-3.58,0-1.73,1.64-2.98,3.89-2.98,2.7,0,4.1,1.26,5.59,2.59l1.51,1.34v-6.61l-.03-.5-.46-.16c-1.48-.51-3.72-1.27-6.84-1.27-5.98,0-10.16,3.56-10.16,8.65s3.74,6.99,7.39,8.34l2.01.76c2.61.96,3.63,1.94,3.63,3.51,0,1.72-1.57,3.55-4.49,3.55-3.46,0-6.87-2.76-7.89-3.83l-1.54-1.6,1.41,8.24.27.16c1.02.6,4.7,1.72,8.12,1.72,6.08,0,10.5-4.02,10.5-9.55,0-5.2-3.76-6.66-6.01-7.53"/>
      <path class="cls-1" d="M312.67,159.4l1.59-1.02c2.19-1.4,2.62-1.51,5.67-1.51h1.55v16.12c0,3.19-.22,4.2-1.05,6.28l-.37.93h8.41l-.26-.88c-.7-2.33-.76-3.5-.76-6.26v-16.19h1.96c1.59,0,2.73.39,3.97,1.33l.77.59,2.01-6.34h-21.25l-2.24,6.95Z"/>
      <path class="cls-1" d="M357.39,173.96l-4.71-6.82c2.16-.7,5.97-2.44,5.97-7.1,0-7.59-7.73-7.59-11.89-7.59h-8.24l.55,1.01c.9,1.67,1.05,2.52,1.05,6.13v13.89c0,3.87-.15,4.35-.8,5.76l-.45.97h8.82l-.45-.97c-.75-1.61-1.03-2.48-1.03-5.38v-6.04l6.23,9.21c1.91,2.86,2.24,3.17,5.85,3.17h4.96l-1.37-1.19c-1.78-1.56-2.8-2.6-4.46-5.05M346.18,156.54c.09,0,.17,0,.26,0,3.49,0,5.96.25,5.96,3.44,0,3.67-3.78,4.33-6.23,4.37v-7.8Z"/>
      <path class="cls-1" d="M388.4,172.76v-15.63c0-1.37.44-2.55.93-3.74l.39-.94h-8.8l.49.98c.81,1.63.95,2.45.95,5.85v8.53c0,4.66,0,8.35-6.4,8.42-4.97,0-5.37-3.81-5.37-8.42v-8.53c0-3.41.31-5.12.57-5.95l.28-.88h-8.48l.4.94c.86,2.06,1.08,2.91,1.08,5.89v8.53c0,4.63,0,13.25,10.53,13.25,3.78,0,6.19-1.51,7.66-2.73v1.87h7.3l-.51-.99c-.91-1.8-1.02-2.46-1.02-6.45"/>
      <path class="cls-1" d="M409.08,176.72c-7.18,0-9.74-5.42-9.74-10.49s2.42-10.15,9.21-10.15c4.55,0,7.09,2.87,7.11,2.9l1.2,1.38v-7.48l-.45-.16c-2.11-.75-4.6-1.13-7.4-1.13-9.36,0-16.16,6.19-16.16,14.73,0,8.97,6.4,14.76,16.31,14.76,1.83,0,3.97-.28,6.53-.85l.41-.09,1.74-7.06-1.48,1.02c-1.94,1.33-4.09,2.64-7.28,2.64"/>
      <path class="cls-1" d="M419.64,159.41l1.6-1.02c2.19-1.4,2.62-1.51,5.68-1.51h1.54v16.12c0,3.18-.22,4.2-1.05,6.28l-.37.93h8.41l-.26-.88c-.7-2.33-.76-3.5-.76-6.26v-16.19h1.96c1.59,0,2.73.39,3.96,1.33l.77.59,2.01-6.34h-21.25l-2.24,6.96Z"/>
      <path class="cls-1" d="M453.97,153.42l.45-.97h-9.1l.75,1.07c.9,1.28.97,2.99.97,4.93v15.71c0,2.81-.11,3.05-.97,4.95l-.5,1.09h8.81s-.42-.97-.42-.97c-.91-2.09-1.03-2.35-1.03-5.07v-15.71c0-2.52.1-3.04,1.03-5.04"/>
      <path class="cls-1" d="M473.55,151.58c-9.6,0-15.33,7.43-15.33,14.61,0,8.34,6.73,14.88,15.33,14.88,7.48,0,15.22-5.56,15.22-14.88,0-8.19-6.68-14.61-15.22-14.61M473.55,176.57c-6.46,0-8.76-5.36-8.76-10.38,0-6.29,3.28-10.04,8.76-10.04s8.64,3.75,8.64,10.04-3.23,10.38-8.64,10.38"/>
      <path class="cls-1" d="M512.51,153.42c.79,1.66.84,2.08.84,4.61v10.54l-10.12-12.1-.24-.3c-.87-1.08-1.86-2.3-2.31-3.32l-.18-.41h-8.76l.77,1.08c.95,1.32,1.38,1.92,1.38,5.34v14.88c0,3.09-.27,4.11-1.04,5.44l-.59,1.02h7.69l-.46-.97c-.89-1.9-1.1-2.46-1.1-5.37v-13.94l16.93,20.28h2.55v-22.12c0-2.62.06-3.2.8-4.63l.51-.99h-7.14l.47.97Z"/>
      <path class="cls-1" d="M551.34,176.72c-7.18,0-9.74-5.42-9.74-10.49s2.42-10.15,9.21-10.15c4.56,0,7.09,2.87,7.11,2.9l1.2,1.39v-7.49l-.45-.16c-2.11-.75-4.61-1.13-7.4-1.13-9.36,0-16.16,6.19-16.16,14.73,0,8.97,6.4,14.76,16.31,14.76,1.83,0,3.96-.28,6.53-.85l.41-.09,1.74-7.06-1.47,1.02c-1.94,1.33-4.09,2.64-7.28,2.64"/>
      <path class="cls-1" d="M578.49,151.58c-9.59,0-15.33,7.43-15.33,14.61,0,8.34,6.73,14.88,15.33,14.88,7.48,0,15.22-5.56,15.22-14.88,0-8.19-6.68-14.61-15.22-14.61M578.49,176.57c-6.46,0-8.76-5.36-8.76-10.38,0-6.29,3.28-10.04,8.76-10.04s8.64,3.75,8.64,10.04-3.23,10.38-8.64,10.38"/>
      <path class="cls-1" d="M598.36,175.03c-1.64,0-2.98,1.35-2.98,3.02s1.34,3.02,2.98,3.02,3.02-1.35,3.02-3.02-1.35-3.02-3.02-3.02"/>
      <path class="cls-1" d="M81.7,175.04l-10.64-22.59h-2.2l-8.87,20.12c-1.97,4.56-2.75,5.56-3.64,6.48l-1.11,1.15h7.92l-.45-.97c-.23-.49-.35-.99-.35-1.45,0-.4.31-1.1.82-2.26l1.84-4h8.76l1.55,3.4c.21.49.85,1.98.85,2.68,0,.59-.13,1.08-.43,1.58l-.62,1.03h10.36l-1.03-1.14c-1.14-1.26-2-2.37-2.76-4.02M71.9,167.25h-4.97l2.55-5.67,2.42,5.67Z"/>
      <path class="cls-1" d="M50.95,173.96l-4.71-6.82c2.16-.7,5.97-2.44,5.97-7.1,0-7.59-7.73-7.59-11.89-7.59h-8.24l.55,1.01c.9,1.67,1.05,2.52,1.05,6.13v13.89c0,3.87-.15,4.35-.8,5.76l-.45.97h8.82l-.45-.97c-.75-1.61-1.03-2.48-1.03-5.38v-6.04l6.23,9.21c1.91,2.86,2.24,3.17,5.85,3.17h4.96l-1.37-1.19c-1.78-1.56-2.8-2.6-4.46-5.05M39.74,156.54c.09,0,.17,0,.26,0,3.49,0,5.96.25,5.96,3.44,0,3.67-3.78,4.33-6.23,4.37v-7.8Z"/>
      <path class="cls-1" d="M230.18,117.22l12.36-26.71h50.03l12.36,26.71c2.51,5.41-2.17,11.7-3.04,12.79h29.61v.02s21.67,0,21.67,0c-1.48-.96-9.68-6.62-14.56-17.22h0S287.86,3.18,287.86,3.18h-41.45c5.23,1.52,9.88,8.95,6.67,15.89l-47.12,101.79c-2.19,4.73-7.68,8.4-8.87,9.16h36.13c-.86-1.09-5.54-7.38-3.04-12.79M267.56,36.47l17.87,38.6h-35.73l17.87-38.6Z"/>
      <path class="cls-1" d="M593.78,97.25c-8.81,14.18-24.49,20.21-32.53,20.21-37.16,0-46.68-30.44-46.68-53.03,0-30.07,17.74-49.67,42.2-49.67,8.58,0,27.09,2.07,37.01,21.75V8.49c-.02-.41-.03-.65-.03-.65-14.75-6.72-28.2-7.84-43.51-7.84-47.62,0-72.45,32.31-72.45,66.67,0,40.52,32.87,65.17,69.65,65.17,17.01,0,31.04-2.99,46.34-9.98v-24.61Z"/>
      <path class="cls-1" d="M462.08,97.25c-8.81,14.18-24.49,20.21-32.53,20.21-37.16,0-46.68-30.44-46.68-53.03,0-30.07,17.74-49.67,42.2-49.67,8.58,0,27.09,2.07,37.01,21.75V8.49c-.02-.41-.03-.65-.03-.65-14.75-6.72-28.2-7.84-43.51-7.84-47.62,0-72.45,32.31-72.45,66.67,0,40.52,32.87,65.17,69.65,65.17,17.01,0,31.04-2.99,46.34-9.98v-24.61Z"/>
    </g>
  </g>
</svg>